<?xml version="1.0" encoding="UTF-8" standalone="no"?>
<!-- Created with Inkscape (http://www.inkscape.org/) -->

<svg
   xmlns:dc="http://purl.org/dc/elements/1.1/"
   xmlns:cc="http://creativecommons.org/ns#"
   xmlns:rdf="http://www.w3.org/1999/02/22-rdf-syntax-ns#"
   xmlns:svg="http://www.w3.org/2000/svg"
   xmlns="http://www.w3.org/2000/svg"
   xmlns:sodipodi="http://sodipodi.sourceforge.net/DTD/sodipodi-0.dtd"
   xmlns:inkscape="http://www.inkscape.org/namespaces/inkscape"
   width="210mm"
   height="297mm"
   viewBox="0 0 210 297"
   version="1.1"
   id="svg8"
   inkscape:export-filename="/home/martinus/bitmap.png"
   inkscape:export-xdpi="167"
   inkscape:export-ydpi="167"
   inkscape:version="0.92.4 5da689c313, 2019-01-14"
   sodipodi:docname="logo-nanobench.svg">
  <defs
     id="defs2" />
  <sodipodi:namedview
     id="base"
     pagecolor="#ffffff"
     bordercolor="#666666"
     borderopacity="1.0"
     inkscape:pageopacity="1"
     inkscape:pageshadow="2"
     inkscape:zoom="1.4"
     inkscape:cx="381.73627"
     inkscape:cy="692.74235"
     inkscape:document-units="mm"
     inkscape:current-layer="layer1"
     showgrid="false"
     inkscape:pagecheckerboard="false"
     inkscape:window-width="2560"
     inkscape:window-height="1372"
     inkscape:window-x="0"
     inkscape:window-y="0"
     inkscape:window-maximized="1" />
  <metadata
     id="metadata5">
    <rdf:RDF>
      <cc:Work
         rdf:about="">
        <dc:format>image/svg+xml</dc:format>
        <dc:type
           rdf:resource="http://purl.org/dc/dcmitype/StillImage" />
        <dc:title></dc:title>
      </cc:Work>
    </rdf:RDF>
  </metadata>
  <g
     inkscape:label="Layer 1"
     inkscape:groupmode="layer"
     id="layer1">
    <path
       style="fill:#d38d5f;stroke-width:0.26458332"
       d="M 15.520233,123.67795 V 75.523779 h 91.148957 91.14896 v 48.154171 48.15416 H 106.66919 15.520233 Z m 22.616581,35.30436 c 0.508728,-0.26526 0.821624,-0.31162 0.881944,-0.13066 0.05142,0.15426 0.730099,0.28046 1.508178,0.28046 h 1.414691 l -0.246114,-0.85815 c -0.135363,-0.47198 -0.246114,-2.12972 -0.246114,-3.68386 0,-2.64946 -0.04246,-2.87618 -0.680773,-3.63477 -0.932582,-1.10831 -2.458885,-1.49954 -4.269421,-1.09436 -1.474626,0.33001 -2.722723,1.43579 -2.722723,2.41228 0,0.43425 0.193981,0.50886 1.322917,0.50886 0.991973,0 1.322917,-0.098 1.322917,-0.39183 0,-0.49662 1.26841,-0.82988 1.826888,-0.48 0.232139,0.14543 0.460116,0.52015 0.506618,0.83271 0.0739,0.4967 -0.04276,0.56848 -0.926042,0.56977 -2.572123,0.004 -4.317881,1.27124 -4.317881,3.13495 0,2.24609 2.524712,3.62971 4.624915,2.5346 z m -1.661582,-2.01978 c -0.813709,-0.81371 0.151468,-2.06375 1.593455,-2.06375 0.656744,0 0.734878,0.0939 0.734878,0.88357 0,0.69007 -0.147583,0.95082 -0.673907,1.19063 -0.856123,0.39007 -1.256431,0.38754 -1.654426,-0.0104 z m 32.027375,2.15579 c 0.545465,-0.15148 1.291616,-0.53777 1.658117,-0.85842 l 0.666367,-0.58299 -0.623671,-0.77221 c -0.602797,-0.74636 -0.644766,-0.75743 -1.253969,-0.33073 -1.187124,0.83149 -3.687553,0.31334 -3.687553,-0.76415 0,-0.30992 0.55527,-0.38187 2.946844,-0.38187 h 2.946845 l -0.17775,-1.51237 c -0.33287,-2.83221 -1.639054,-4.16736 -4.076959,-4.16736 -2.640632,0 -4.187002,1.45117 -4.470188,4.19497 -0.256593,2.48615 0.80845,4.28474 2.999816,5.06594 1.248855,0.44521 1.792589,0.46453 3.072101,0.10919 z m -3.240709,-5.92043 c 0,-1.18366 2.046893,-1.64405 2.763123,-0.62149 0.226531,0.32342 0.411877,0.68061 0.411877,0.79375 0,0.11314 -0.714375,0.20571 -1.5875,0.20571 -1.199444,0 -1.5875,-0.0924 -1.5875,-0.37797 z m 20.84321,5.78693 c 1.102029,-0.77189 0.502759,-2.49854 -0.867169,-2.49854 -1.369928,0 -1.969199,1.72665 -0.867169,2.49854 0.323418,0.22653 0.713647,0.41188 0.867169,0.41188 0.153522,0 0.54375,-0.18535 0.867169,-0.41188 z m 5.027083,0 c 1.102029,-0.77189 0.502759,-2.49854 -0.867169,-2.49854 -1.369928,0 -1.969198,1.72665 -0.867169,2.49854 0.323418,0.22653 0.713647,0.41188 0.867169,0.41188 0.153522,0 0.54375,-0.18535 0.867169,-0.41188 z m 16.590039,-0.002 c 0.50873,-0.26527 0.82163,-0.31162 0.88195,-0.13066 0.0514,0.15425 0.7301,0.28046 1.50818,0.28046 h 1.41469 l -0.24612,-0.85815 c -0.13536,-0.47211 -0.24611,-2.12985 -0.24611,-3.68399 0,-2.64946 -0.0425,-2.87618 -0.68077,-3.63477 -0.93259,-1.10831 -2.45889,-1.49954 -4.26942,-1.09436 -1.47463,0.33001 -2.72273,1.43579 -2.72273,2.41228 0,0.43425 0.19398,0.50886 1.32292,0.50886 0.99197,0 1.32292,-0.098 1.32292,-0.39183 0,-0.49662 1.26841,-0.82988 1.82689,-0.48 0.23213,0.14543 0.46011,0.52015 0.50661,0.83271 0.0739,0.4967 -0.0428,0.56848 -0.92604,0.56977 -2.57212,0.004 -4.31788,1.27124 -4.31788,3.13495 0,2.24609 2.52471,3.62971 4.62491,2.5346 z m -1.66158,-2.01991 c -0.81371,-0.81371 0.15147,-2.06375 1.59346,-2.06375 0.65674,0 0.73488,0.0939 0.73488,0.88357 0,0.69007 -0.14759,0.95082 -0.67391,1.19063 -0.85612,0.39007 -1.25643,0.38754 -1.65443,-0.0104 z m 23.23042,1.68071 c 2.37154,-1.74185 2.73095,-5.33414 0.75844,-7.5807 -1.95728,-2.22923 -5.90436,-1.67613 -7.11801,0.99744 -0.89986,1.9823 -0.45013,5.1326 0.89117,6.24255 1.36947,1.13327 4.15319,1.30671 5.4684,0.34071 z m -3.82967,-2.4084 c -0.22201,-0.42934 -0.40367,-1.20916 -0.40367,-1.73293 0,-0.52378 0.18166,-1.3036 0.40367,-1.73294 0.32755,-0.63341 0.57419,-0.78061 1.30792,-0.78061 1.20009,0 1.728,0.7679 1.728,2.51355 0,1.74564 -0.52791,2.51354 -1.728,2.51354 -0.73373,0 -0.98037,-0.1472 -1.30792,-0.78061 z m 14.14002,2.57653 c 0.27371,-0.17093 0.77031,-0.79377 1.10355,-1.38409 0.75061,-1.32966 0.84243,-4.31139 0.17156,-5.57121 -0.99189,-1.86265 -2.8781,-2.67177 -4.42705,-1.89906 l -0.80841,0.4033 v -2.22868 -2.22868 h -1.45521 -1.45521 v 6.61458 6.61458 h 1.32292 c 1.0546,0 1.32291,-0.0888 1.32291,-0.43788 0,-0.3943 0.0461,-0.39774 0.46303,-0.0345 0.25466,0.22184 0.64161,0.47434 0.85989,0.56109 0.54428,0.21632 2.2957,-0.0308 2.90202,-0.40943 z m -3.62962,-1.97115 c -0.22735,-0.0917 -0.33073,-0.82074 -0.33073,-2.33205 0,-2.34594 0.1006,-2.51981 1.45795,-2.51981 1.05205,0 1.45246,0.66647 1.45246,2.41755 0,2.05498 -0.30281,2.61555 -1.39837,2.58865 -0.46782,-0.0115 -0.99941,-0.0809 -1.18131,-0.15434 z m 12.43498,2.2781 c 0.54546,-0.15148 1.29161,-0.53777 1.65811,-0.85842 l 0.66637,-0.58299 -0.62367,-0.77221 c -0.6028,-0.74636 -0.64477,-0.75743 -1.25397,-0.33073 -1.18712,0.83149 -3.68755,0.31334 -3.68755,-0.76415 0,-0.30992 0.55527,-0.38187 2.94684,-0.38187 h 2.94685 l -0.17775,-1.51237 c -0.33287,-2.83221 -1.63906,-4.16736 -4.07696,-4.16736 -2.64063,0 -4.187,1.45117 -4.47019,4.19497 -0.25659,2.48615 0.80845,4.28474 2.99982,5.06594 1.24885,0.44521 1.79259,0.46453 3.0721,0.10919 z m -3.24071,-5.92043 c 0,-1.18366 2.04689,-1.64405 2.76312,-0.62149 0.22653,0.32342 0.41188,0.68061 0.41188,0.79375 0,0.11314 -0.71438,0.20571 -1.5875,0.20571 -1.19945,0 -1.5875,-0.0924 -1.5875,-0.37797 z m 22.00479,5.92632 c 1.15983,-0.32214 2.60146,-1.8624 2.60146,-2.77943 0,-0.59862 -0.0999,-0.65225 -1.2154,-0.65225 -0.99508,0 -1.24061,0.0965 -1.35453,0.53206 -0.14462,0.55301 -1.00945,0.90464 -1.83427,0.7458 -1.02924,-0.19821 -1.52659,-2.77109 -0.80961,-4.18828 0.25977,-0.51346 0.53929,-0.66145 1.24931,-0.66145 0.73688,0 0.98244,0.14142 1.26339,0.7276 0.30528,0.63695 0.49959,0.7276 1.55954,0.7276 h 1.2108 l -0.15697,-0.96734 c -0.43929,-2.70703 -4.32489,-3.88759 -6.57201,-1.99676 -1.07575,0.90518 -1.54234,2.08203 -1.54234,3.89015 0,3.56257 2.37094,5.51935 5.60063,4.6223 z M 45.947315,155.83413 c 0,-2.98983 0.04782,-3.32357 0.511773,-3.57187 0.686665,-0.3675 1.69109,-0.34645 2.081144,0.0436 0.212526,0.21253 0.3175,1.39348 0.3175,3.57188 v 3.25437 h 1.322916 1.322917 v -3.55465 c 0,-1.95506 -0.116094,-3.86 -0.257987,-4.23321 -0.30811,-0.81039 -1.725777,-1.73477 -2.662632,-1.73615 -0.369414,-5.3e-4 -1.113554,0.2243 -1.653646,0.49966 -0.775731,0.39549 -0.981985,0.42328 -0.981985,0.13229 0,-0.26563 -0.368906,-0.36835 -1.322916,-0.36835 h -1.322917 v 4.63021 4.6302 h 1.322917 1.322916 z m 10.054167,1.87517 c 0,-2.29373 0.516852,-2.3801 1.827193,-0.30532 l 1.091415,1.72813 h 1.451112 c 0.798113,0 1.451113,-0.0622 1.451113,-0.13819 0,-0.076 -0.769239,-1.28851 -1.70942,-2.69445 l -1.70942,-2.55625 1.397457,-1.60504 c 2.032588,-2.33449 2.025328,-2.26648 0.241943,-2.26648 h -1.546084 l -1.247656,1.48392 -1.247653,1.48393 v -3.4683 -3.4683 h -1.455209 -1.455208 v 6.61458 6.61458 h 1.455208 1.455209 z m 19.049999,-1.73167 v -3.15448 l 0.885661,-0.29229 c 0.487111,-0.16076 1.089178,-0.2142 1.337924,-0.11875 0.39765,0.1526 0.442465,0.002 0.371109,-1.24957 l -0.08115,-1.42313 -0.877321,0.0409 c -0.482526,0.0225 -1.107604,0.24931 -1.389062,0.50403 -0.466014,0.42174 -0.511742,0.42399 -0.511742,0.0252 0,-0.34907 -0.268316,-0.43788 -1.322916,-0.43788 h -1.32292 v 4.63021 4.6302 h 1.455209 1.455208 z m 6.614583,-3.4601 v -6.61458 h -1.322917 -1.322916 v 6.61458 6.61458 h 1.322916 1.322917 z m 14.552083,3.3166 c 0,-2.98983 0.0478,-3.32357 0.51178,-3.57187 0.68666,-0.3675 1.69109,-0.34645 2.08114,0.0436 0.21253,0.21253 0.3175,1.39348 0.3175,3.57188 v 3.25437 h 1.322923 1.32291 v -3.55465 c 0,-1.95506 -0.11609,-3.86 -0.25798,-4.23321 -0.30811,-0.81039 -1.725783,-1.73477 -2.662643,-1.73615 -0.36941,-5.3e-4 -1.11355,0.2243 -1.65364,0.49966 -0.77573,0.39549 -0.98199,0.42328 -0.98199,0.13229 0,-0.26563 -0.3689,-0.36835 -1.32291,-0.36835 h -1.32292 v 4.63021 4.6302 h 1.32292 1.32291 z m 19.314593,0 c 0,-2.98983 0.0478,-3.32357 0.51177,-3.57187 0.68666,-0.3675 1.69109,-0.34645 2.08114,0.0436 0.21253,0.21253 0.3175,1.39348 0.3175,3.57188 v 3.25437 h 1.32292 1.32292 v -3.55465 c 0,-1.95506 -0.1161,-3.86 -0.25799,-4.23321 -0.30811,-0.81039 -1.72578,-1.73477 -2.66263,-1.73615 -0.36942,-5.3e-4 -1.11356,0.2243 -1.65365,0.49966 -0.77573,0.39549 -0.98198,0.42328 -0.98198,0.13229 0,-0.26563 -0.36891,-0.36835 -1.32292,-0.36835 h -1.32292 v 4.63021 4.6302 h 1.32292 1.32292 z m 39.15833,0 c 0,-2.98983 0.0478,-3.32357 0.51177,-3.57187 0.68667,-0.3675 1.69109,-0.34645 2.08114,0.0436 0.21253,0.21253 0.3175,1.39348 0.3175,3.57188 v 3.25437 h 1.32292 1.32292 v -3.55465 c 0,-1.95506 -0.1161,-3.86 -0.25799,-4.23321 -0.30811,-0.81039 -1.72578,-1.73477 -2.66263,-1.73615 -0.36942,-5.3e-4 -1.11356,0.2243 -1.65365,0.49966 -0.77573,0.39549 -0.98198,0.42328 -0.98198,0.13229 0,-0.26563 -0.36891,-0.36835 -1.32292,-0.36835 h -1.32292 v 4.63021 4.6302 h 1.32292 1.32292 z m 19.05,0.0436 c 0,-3.56863 0.12,-3.88938 1.4552,-3.88938 1.33521,0 1.45521,0.32075 1.45521,3.88938 v 3.25437 h 1.32292 1.32292 v -3.58501 c 0,-4.0988 -0.26525,-4.95241 -1.72887,-5.56396 -1.18699,-0.49595 -1.66965,-0.47481 -2.8454,0.12462 l -0.98198,0.50064 v -2.35272 -2.35273 h -1.32292 -1.32292 v 6.61458 6.61458 h 1.32292 1.32292 z M 86.291737,151.8228 c 0.619152,-0.61915 0.402704,-1.72749 -0.427998,-2.19161 -0.624374,-0.34884 -0.769316,-0.34217 -1.389062,0.0639 -0.790461,0.51793 -0.91721,1.50104 -0.276172,2.14207 0.538511,0.53851 1.54728,0.53159 2.093232,-0.0144 z m 5.027083,0 c 0.619152,-0.61915 0.402704,-1.72749 -0.427998,-2.19161 -0.624374,-0.34884 -0.769315,-0.34217 -1.389062,0.0639 -0.790461,0.51793 -0.91721,1.50104 -0.276172,2.14207 0.538512,0.53851 1.54728,0.53159 2.093232,-0.0144 z m -1.97984,-26.0282 v -5.82083 h 0.926042 0.926042 v 3.83646 3.83646 h 1.984374 1.984379 v -3.83646 -3.83646 h 11.377083 11.37709 v 3.83646 3.83646 h 1.98437 1.98438 v -3.83646 -3.83646 h 0.92604 0.92604 v 5.82083 5.82084 h 1.98437 1.98438 v -5.82084 -5.82083 h 0.92604 0.92604 v -2.91042 -2.91041 H 106.5369 83.518147 v 2.91041 2.91042 h 0.926042 0.926041 v 5.82083 5.82084 h 1.984375 1.984375 z m -14.872511,-15.0151 -0.07645,-2.3151 -20.835937,-0.0677 -20.835937,-0.0678 v 2.38285 2.38285 h 20.912383 20.912385 z m 105.889181,-0.0677 v -2.38285 l -20.83594,0.0678 -20.83593,0.0677 -0.0764,2.3151 -0.0765,2.3151 h 20.91239 20.91238 z m -87.312503,0.66306 v -0.92604 h 13.493753 13.49375 v 0.92604 0.92604 h 1.85209 1.85208 v -0.92604 -0.92604 h 1.98437 1.98438 v -1.98437 -1.98438 h -1.98438 -1.98437 v -0.92604 -0.92604 h 1.98437 1.98438 v -1.98438 -1.98437 h -1.98438 -1.98437 v -0.782163 -0.78216 l 1.91823,-0.0777 1.91823,-0.0777 v -1.98441 -1.98437 l -1.91823,-0.0777 -1.91823,-0.0777 v -0.91445 -0.91445 h -1.85208 -1.85209 v 0.92604 0.92605 H 106.5369 93.043147 v -0.92605 -0.92604 H 91.191064 89.33898 v 0.91445 0.91445 l -1.918229,0.0777 -1.918229,0.0777 v 1.98438 1.98437 l 1.918229,0.0777 1.918229,0.0777 v 0.78216 0.782163 H 87.354605 85.37023 v 1.98437 1.98438 h 1.984375 1.984375 v 0.92604 0.92604 H 87.354605 85.37023 v 1.98438 1.98437 h 1.984375 1.984375 v 0.92604 0.92604 h 1.852084 1.852083 z m 0,-5.82083 v -0.92604 h 13.493753 13.49375 v 0.92604 0.92604 H 106.5369 93.043147 Z m 0,-5.688543 v -0.79375 h 13.493753 13.49375 v 0.79375 0.793753 H 106.5369 93.043147 Z"
       id="path3724"
       inkscape:connector-curvature="0"
       inkscape:export-xdpi="167.2"
       inkscape:export-ydpi="167.2" />
  </g>
</svg>
